<svg width="6" height="8" viewBox="0 0 6 8" fill="none" xmlns="http://www.w3.org/2000/svg">
<path d="M5.46094 7.0625V8H0.695312V7.19434L3.00977 4.66992C3.26367 4.38346 3.46387 4.13607 3.61035 3.92773C3.75684 3.7194 3.85938 3.53223 3.91797 3.36621C3.97982 3.19694 4.01074 3.03255 4.01074 2.87305C4.01074 2.64844 3.96842 2.4515 3.88379 2.28223C3.80241 2.1097 3.68197 1.97461 3.52246 1.87695C3.36296 1.77604 3.16927 1.72559 2.94141 1.72559C2.67773 1.72559 2.45638 1.78255 2.27734 1.89648C2.09831 2.01042 1.96322 2.16829 1.87207 2.37012C1.78092 2.56868 1.73535 2.79655 1.73535 3.05371H0.558594C0.558594 2.6403 0.652995 2.2627 0.841797 1.9209C1.0306 1.57585 1.30404 1.30241 1.66211 1.10059C2.02018 0.895508 2.4515 0.792969 2.95605 0.792969C3.43132 0.792969 3.83496 0.872721 4.16699 1.03223C4.49902 1.19173 4.7513 1.41797 4.92383 1.71094C5.09961 2.00391 5.1875 2.35059 5.1875 2.75098C5.1875 2.97233 5.15169 3.19206 5.08008 3.41016C5.00846 3.62826 4.90592 3.84635 4.77246 4.06445C4.64225 4.2793 4.48763 4.49577 4.30859 4.71387C4.12956 4.92871 3.93262 5.14681 3.71777 5.36816L2.17969 7.0625H5.46094Z" fill="white"/>
</svg>
